<svg width="16" height="17" viewBox="0 0 16 17" fill="none" xmlns="http://www.w3.org/2000/svg">
<path d="M6.42779 1.65139C6.70753 1.09191 7.21296 0.5 8 0.5C8.78704 0.5 9.29247 1.09191 9.57221 1.65139C9.86084 2.22866 10 2.93164 10 3.5L10 7.19098L15.1708 9.77639C15.679 10.0305 16 10.5499 16 11.118L16 12.5C16 12.647 15.9353 12.7865 15.8232 12.8815C15.711 12.9765 15.5628 13.0174 15.4178 12.9932L9.911 12.0754L9.5355 14.3284L10.8536 15.6464C10.9966 15.7894 11.0393 16.0045 10.9619 16.1913C10.8845 16.3782 10.7022 16.5 10.5 16.5H5.5C5.29777 16.5 5.11545 16.3782 5.03806 16.1913C4.96067 16.0045 5.00345 15.7894 5.14645 15.6464L6.4645 14.3284L6.089 12.0754L0.5822 12.9932C0.437223 13.0174 0.288958 12.9765 0.176813 12.8815C0.0646668 12.7865 0 12.647 0 12.5L0 11.118C0 10.5499 0.321003 10.0305 0.829179 9.77639L6 7.19098V3.5C6 2.93164 6.13915 2.22866 6.42779 1.65139ZM7.32221 2.09861C7.11085 2.52134 7 3.06836 7 3.5V7.5C7 7.68939 6.893 7.86252 6.72361 7.94721L1.27639 10.6708C1.107 10.7555 1 10.9286 1 11.118V11.9098L6.4178 11.0068C6.69019 10.9614 6.9478 11.1454 6.9932 11.4178L7.4932 14.4178C7.51974 14.5771 7.46773 14.7394 7.35355 14.8536L6.70711 15.5H9.29289L8.64645 14.8536C8.53227 14.7394 8.48026 14.5771 8.5068 14.4178L9.0068 11.4178C9.0522 11.1454 9.30981 10.9614 9.5822 11.0068L15 11.9098V11.118C15 10.9286 14.893 10.7555 14.7236 10.6708L9.27639 7.94721C9.107 7.86252 9 7.68939 9 7.5L9 3.5C9 3.06836 8.88916 2.52134 8.67779 2.09861C8.45753 1.65809 8.21296 1.5 8 1.5C7.78704 1.5 7.54247 1.65809 7.32221 2.09861Z" fill="black"/>
</svg>
