<svg width="21" height="22" viewBox="0 0 21 22" fill="none" xmlns="http://www.w3.org/2000/svg">
<path d="M20.4665 1.38473C19.8031 0.658226 18.7214 0.790334 17.8659 1.09798C16.9832 1.41541 16.0872 1.99797 15.4576 2.57282L11.3691 6.30597L8.57567 5.47121L8.78722 5.27805C9.09311 4.99875 9.1524 4.56569 8.91965 4.31079L8.0768 3.3877C7.84405 3.13279 7.4074 3.15257 7.10151 3.43186L5.78225 4.63645L4.14696 4.14777C3.43718 3.93567 2.59128 4.16469 1.96193 4.73933L0.431112 6.13709C0.268305 6.28574 0.168248 6.48656 0.157537 6.68617C0.146825 6.88578 0.226543 7.06395 0.375502 7.17334L2.05151 8.40412L1.27702 9.63985C1.10822 9.90917 1.11671 10.2248 1.29811 10.4235C1.4795 10.6222 1.79309 10.6592 2.07662 10.5156L3.76302 9.66096L6.03359 11.3283L3.85441 13.9537L1.28346 14.0701C1.00453 14.0828 0.730255 14.2608 0.588522 14.5212C0.44679 14.7816 0.465515 15.0731 0.635966 15.2598L4.85023 19.8752C5.02068 20.0619 5.30929 20.107 5.58148 19.9895C5.85367 19.8719 6.05584 19.6149 6.09372 19.3383L6.44281 16.7885L9.25497 14.8564L10.7096 17.2688L9.70555 18.8708C9.53675 19.1401 9.54525 19.4558 9.72664 19.6544C9.90804 19.8531 10.2216 19.8902 10.5052 19.7465L11.806 19.0872L12.8797 20.868C12.9752 21.0262 13.1454 21.1218 13.3451 21.1292C13.5449 21.1366 13.754 21.0552 13.9168 20.9066L15.4476 19.5088C16.0769 18.9342 16.3817 18.1125 16.2349 17.3864L15.8965 15.7136L17.2158 14.509C17.5216 14.2297 17.5809 13.7966 17.3482 13.5417L16.5053 12.6186C16.2726 12.3637 15.8359 12.3835 15.53 12.6628L15.3185 12.8559L14.7405 9.99834L18.829 6.26519C19.4586 5.69034 20.12 4.85087 20.5162 4.00058C20.9002 3.17647 21.1298 2.11124 20.4665 1.38473Z" fill="#78797A"/>
</svg>
