<svg width="16" height="17" viewBox="0 0 16 17" fill="none" xmlns="http://www.w3.org/2000/svg">
<path d="M6.44531 12.1875V6.85547H5.8125C5.39844 7.07812 4.90234 7.37109 4.5 7.66016V8.35547C4.875 8.09766 5.46875 7.73438 5.75781 7.57812H5.76953V12.1875H6.44531Z" fill="black"/>
<path d="M7.63281 10.8828C7.67969 11.5234 8.22656 12.2891 9.33594 12.2891C10.5938 12.2891 11.3359 11.2227 11.3359 9.41797C11.3359 7.48438 10.5547 6.75 9.38281 6.75C8.45703 6.75 7.58594 7.42188 7.58594 8.55859C7.58594 9.71875 8.41016 10.3281 9.26172 10.3281C10.0078 10.3281 10.4922 9.95312 10.6445 9.53906H10.6719C10.668 10.8555 10.2109 11.7031 9.36719 11.7031C8.70312 11.7031 8.35938 11.2539 8.31641 10.8828H7.63281ZM10.5859 8.56641C10.5859 9.26172 10.0273 9.74609 9.40234 9.74609C8.80078 9.74609 8.25781 9.36328 8.25781 8.54688C8.25781 7.72266 8.83984 7.33594 9.42578 7.33594C10.0586 7.33594 10.5859 7.73438 10.5859 8.56641Z" fill="black"/>
<path d="M3.5 0.5C3.77614 0.5 4 0.723858 4 1V1.5H12V1C12 0.723858 12.2239 0.5 12.5 0.5C12.7761 0.5 13 0.723858 13 1V1.5H14C15.1046 1.5 16 2.39543 16 3.5V14.5C16 15.6046 15.1046 16.5 14 16.5H2C0.895431 16.5 0 15.6046 0 14.5V3.5C0 2.39543 0.895431 1.5 2 1.5H3V1C3 0.723858 3.22386 0.5 3.5 0.5ZM1 4.5V14.5C1 15.0523 1.44772 15.5 2 15.5H14C14.5523 15.5 15 15.0523 15 14.5V4.5H1Z" fill="black"/>
</svg>
