<svg width="20" height="20" viewBox="0 0 20 20" fill="none" xmlns="http://www.w3.org/2000/svg">
<path d="M5 3.125C5 2.77982 5.27982 2.5 5.625 2.5H6.875C7.22018 2.5 7.5 2.77982 7.5 3.125V4.375C7.5 4.72018 7.22018 5 6.875 5H5.625C5.27982 5 5 4.72018 5 4.375V3.125Z" fill="black"/>
<path d="M8.75 3.125C8.75 2.77982 9.02982 2.5 9.375 2.5H10.625C10.9702 2.5 11.25 2.77982 11.25 3.125V4.375C11.25 4.72018 10.9702 5 10.625 5H9.375C9.02982 5 8.75 4.72018 8.75 4.375V3.125Z" fill="black"/>
<path d="M13.125 2.5C12.7798 2.5 12.5 2.77982 12.5 3.125V4.375C12.5 4.72018 12.7798 5 13.125 5H14.375C14.7202 5 15 4.72018 15 4.375V3.125C15 2.77982 14.7202 2.5 14.375 2.5H13.125Z" fill="black"/>
<path d="M5 6.875C5 6.52982 5.27982 6.25 5.625 6.25H6.875C7.22018 6.25 7.5 6.52982 7.5 6.875V8.125C7.5 8.47018 7.22018 8.75 6.875 8.75H5.625C5.27982 8.75 5 8.47018 5 8.125V6.875Z" fill="black"/>
<path d="M9.375 6.25C9.02982 6.25 8.75 6.52982 8.75 6.875V8.125C8.75 8.47018 9.02982 8.75 9.375 8.75H10.625C10.9702 8.75 11.25 8.47018 11.25 8.125V6.875C11.25 6.52982 10.9702 6.25 10.625 6.25H9.375Z" fill="black"/>
<path d="M12.5 6.875C12.5 6.52982 12.7798 6.25 13.125 6.25H14.375C14.7202 6.25 15 6.52982 15 6.875V8.125C15 8.47018 14.7202 8.75 14.375 8.75H13.125C12.7798 8.75 12.5 8.47018 12.5 8.125V6.875Z" fill="black"/>
<path d="M5.625 10C5.27982 10 5 10.2798 5 10.625V11.875C5 12.2202 5.27982 12.5 5.625 12.5H6.875C7.22018 12.5 7.5 12.2202 7.5 11.875V10.625C7.5 10.2798 7.22018 10 6.875 10H5.625Z" fill="black"/>
<path d="M8.75 10.625C8.75 10.2798 9.02982 10 9.375 10H10.625C10.9702 10 11.25 10.2798 11.25 10.625V11.875C11.25 12.2202 10.9702 12.5 10.625 12.5H9.375C9.02982 12.5 8.75 12.2202 8.75 11.875V10.625Z" fill="black"/>
<path d="M13.125 10C12.7798 10 12.5 10.2798 12.5 10.625V11.875C12.5 12.2202 12.7798 12.5 13.125 12.5H14.375C14.7202 12.5 15 12.2202 15 11.875V10.625C15 10.2798 14.7202 10 14.375 10H13.125Z" fill="black"/>
<path fill-rule="evenodd" clip-rule="evenodd" d="M2.5 1.25C2.5 0.559645 3.05964 0 3.75 0H16.25C16.9404 0 17.5 0.559644 17.5 1.25V18.75C17.5 19.4404 16.9404 20 16.25 20H3.75C3.05964 20 2.5 19.4404 2.5 18.75V1.25ZM16.25 1.25V18.75H12.5V15.625C12.5 15.2798 12.2202 15 11.875 15H8.125C7.77982 15 7.5 15.2798 7.5 15.625V18.75H3.75V1.25L16.25 1.25Z" fill="black"/>
</svg>
