<svg width="24" height="24" viewBox="0 0 24 24" fill="none" xmlns="http://www.w3.org/2000/svg">
<path d="M18.2487 13.4096C17.4626 15.0023 16.3987 16.5902 15.3086 18.0151C14.222 19.4355 13.1316 20.6652 12.3115 21.5407C12.2025 21.657 12.0985 21.767 12 21.8701C11.9015 21.767 11.7975 21.657 11.6885 21.5407C10.8684 20.6652 9.77802 19.4355 8.69137 18.0151C7.60131 16.5902 6.53737 15.0023 5.75134 13.4096C4.95721 11.8006 4.5 10.2929 4.5 9C4.5 4.85786 7.85786 1.5 12 1.5C16.1421 1.5 19.5 4.85786 19.5 9C19.5 10.2929 19.0428 11.8006 18.2487 13.4096ZM12 24C12 24 21 15.4706 21 9C21 4.02944 16.9706 0 12 0C7.02944 0 3 4.02944 3 9C3 15.4706 12 24 12 24Z" fill="black"/>
<path d="M12 12C10.3431 12 9 10.6569 9 9C9 7.34315 10.3431 6 12 6C13.6569 6 15 7.34315 15 9C15 10.6569 13.6569 12 12 12ZM12 13.5C14.4853 13.5 16.5 11.4853 16.5 9C16.5 6.51472 14.4853 4.5 12 4.5C9.51472 4.5 7.5 6.51472 7.5 9C7.5 11.4853 9.51472 13.5 12 13.5Z" fill="black"/>
</svg>
