<svg width="32" height="32" viewBox="0 0 32 32" fill="none" xmlns="http://www.w3.org/2000/svg">
<path d="M11 11C11.5523 11 12 11.4477 12 12V24C12 24.5523 11.5523 25 11 25C10.4477 25 10 24.5523 10 24V12C10 11.4477 10.4477 11 11 11Z" fill="#78797A"/>
<path d="M16 11C16.5523 11 17 11.4477 17 12V24C17 24.5523 16.5523 25 16 25C15.4477 25 15 24.5523 15 24V12C15 11.4477 15.4477 11 16 11Z" fill="#78797A"/>
<path d="M22 12C22 11.4477 21.5523 11 21 11C20.4477 11 20 11.4477 20 12V24C20 24.5523 20.4477 25 21 25C21.5523 25 22 24.5523 22 24V12Z" fill="#78797A"/>
<path fill-rule="evenodd" clip-rule="evenodd" d="M29 6C29 7.10457 28.1046 8 27 8H26V26C26 28.2091 24.2091 30 22 30H10C7.79086 30 6 28.2091 6 26V8H5C3.89543 8 3 7.10457 3 6V4C3 2.89543 3.89543 2 5 2H12C12 0.895431 12.8954 0 14 0H18C19.1046 0 20 0.895431 20 2H27C28.1046 2 29 2.89543 29 4V6ZM8.23607 8L8 8.11803V26C8 27.1046 8.89543 28 10 28H22C23.1046 28 24 27.1046 24 26V8.11803L23.7639 8H8.23607ZM5 6V4H27V6H5Z" fill="#78797A"/>
</svg>
