<svg width="42" height="42" viewBox="0 0 42 42" fill="none" xmlns="http://www.w3.org/2000/svg">
<path d="M12.1969 12.1969C12.7095 11.6844 13.5405 11.6844 14.0531 12.1969L21 19.1438L27.9469 12.1969C28.4595 11.6844 29.2905 11.6844 29.8031 12.1969C30.3156 12.7095 30.3156 13.5405 29.8031 14.0531L22.8562 21L29.8031 27.9469C30.3156 28.4595 30.3156 29.2905 29.8031 29.8031C29.2905 30.3156 28.4595 30.3156 27.9469 29.8031L21 22.8562L14.0531 29.8031C13.5405 30.3156 12.7095 30.3156 12.1969 29.8031C11.6844 29.2905 11.6844 28.4595 12.1969 27.9469L19.1438 21L12.1969 14.0531C11.6844 13.5405 11.6844 12.7095 12.1969 12.1969Z" fill="#A5A5A6"/>
</svg>
