<svg width="32" height="33" viewBox="0 0 32 33" fill="none" xmlns="http://www.w3.org/2000/svg">
<g clip-path="url(#clip0_3_344)">
<path d="M0.0182495 11.2333C0.0182495 7.43673 0.0182495 5.53843 0.768827 4.0935C1.40133 2.87588 2.39413 1.88308 3.61175 1.25058C5.05668 0.5 6.95498 0.5 10.7516 0.5H21.2849C25.0815 0.5 26.9798 0.5 28.4247 1.25058C29.6424 1.88308 30.6352 2.87588 31.2677 4.0935C32.0182 5.53843 32.0182 7.43673 32.0182 11.2333V21.7667C32.0182 25.5633 32.0182 27.4616 31.2677 28.9065C30.6352 30.1241 29.6424 31.1169 28.4247 31.7494C26.9798 32.5 25.0815 32.5 21.2849 32.5H10.7516C6.95498 32.5 5.05668 32.5 3.61175 31.7494C2.39413 31.1169 1.40133 30.1241 0.768827 28.9065C0.0182495 27.4616 0.0182495 25.5633 0.0182495 21.7667V11.2333Z" fill="url(#paint0_radial_3_344)"/>
<path d="M0.0182495 11.2333C0.0182495 7.43673 0.0182495 5.53843 0.768827 4.0935C1.40133 2.87588 2.39413 1.88308 3.61175 1.25058C5.05668 0.5 6.95498 0.5 10.7516 0.5H21.2849C25.0815 0.5 26.9798 0.5 28.4247 1.25058C29.6424 1.88308 30.6352 2.87588 31.2677 4.0935C32.0182 5.53843 32.0182 7.43673 32.0182 11.2333V21.7667C32.0182 25.5633 32.0182 27.4616 31.2677 28.9065C30.6352 30.1241 29.6424 31.1169 28.4247 31.7494C26.9798 32.5 25.0815 32.5 21.2849 32.5H10.7516C6.95498 32.5 5.05668 32.5 3.61175 31.7494C2.39413 31.1169 1.40133 30.1241 0.768827 28.9065C0.0182495 27.4616 0.0182495 25.5633 0.0182495 21.7667V11.2333Z" fill="url(#paint1_radial_3_344)"/>
<path d="M16.0005 4.86353C12.8404 4.86353 12.4438 4.87734 11.2026 4.93383C9.96384 4.99056 9.11829 5.18668 8.37843 5.47443C7.61312 5.77165 6.96393 6.16922 6.31716 6.81625C5.66991 7.46304 5.27235 8.11225 4.97417 8.87734C4.6857 9.61746 4.48934 10.4633 4.43358 11.7016C4.37807 12.9428 4.36353 13.3396 4.36353 16.4999C4.36353 19.6601 4.37759 20.0555 4.43383 21.2967C4.49079 22.5355 4.68691 23.3811 4.97442 24.121C5.27186 24.8863 5.66943 25.5355 6.31644 26.1823C6.96296 26.8296 7.61215 27.2281 8.37698 27.5253C9.11732 27.8131 9.96311 28.0092 11.2016 28.0659C12.4428 28.1224 12.8391 28.1363 15.9991 28.1363C19.1594 28.1363 19.5548 28.1224 20.796 28.0659C22.0347 28.0092 22.8813 27.8131 23.6216 27.5253C24.3867 27.2281 25.0349 26.8296 25.6814 26.1823C26.3287 25.5355 26.7262 24.8863 27.0244 24.1212C27.3105 23.3811 27.5068 22.5353 27.565 21.297C27.6208 20.0558 27.6353 19.6601 27.6353 16.4999C27.6353 13.3396 27.6208 12.943 27.565 11.7018C27.5068 10.463 27.3105 9.61746 27.0244 8.87759C26.7262 8.11225 26.3287 7.46304 25.6814 6.81625C25.0342 6.16898 24.3869 5.7714 23.6209 5.47443C22.8791 5.18668 22.0331 4.99056 20.7943 4.93383C19.5531 4.87734 19.158 4.86353 15.9969 4.86353H16.0005ZM14.9567 6.96049C15.2665 6.96001 15.6122 6.96049 16.0005 6.96049C19.1073 6.96049 19.4756 6.97165 20.7024 7.0274C21.8369 7.07928 22.4527 7.26886 22.8628 7.42813C23.4059 7.63904 23.793 7.89116 24.2 8.29843C24.6073 8.70571 24.8594 9.09359 25.0708 9.63662C25.23 10.0463 25.4199 10.6621 25.4715 11.7966C25.5272 13.0233 25.5394 13.3918 25.5394 16.4972C25.5394 19.6027 25.5272 19.9712 25.4715 21.1978C25.4196 22.3324 25.23 22.9481 25.0708 23.3578C24.8599 23.9009 24.6073 24.2875 24.2 24.6946C23.7928 25.1018 23.4061 25.3539 22.8628 25.5649C22.4532 25.7249 21.8369 25.9139 20.7024 25.9658C19.4758 26.0216 19.1073 26.0337 16.0005 26.0337C12.8934 26.0337 12.5252 26.0216 11.2986 25.9658C10.1641 25.9135 9.54834 25.7239 9.13793 25.5646C8.59491 25.3537 8.20705 25.1016 7.79978 24.6943C7.39252 24.287 7.14041 23.9001 6.92902 23.3569C6.76976 22.9472 6.57994 22.3314 6.52831 21.1969C6.47255 19.9702 6.4614 19.6017 6.4614 16.4943C6.4614 13.3869 6.47255 13.0204 6.52831 11.7937C6.58019 10.6592 6.76976 10.0434 6.92902 9.63322C7.13993 9.09019 7.39252 8.70231 7.79978 8.29504C8.20705 7.88777 8.59491 7.63565 9.13793 7.42425C9.5481 7.26425 10.1641 7.07516 11.2986 7.02304C12.372 6.97456 12.788 6.96001 14.9567 6.95759V6.96049ZM22.2117 8.89262C21.4408 8.89262 20.8154 9.51734 20.8154 10.2885C20.8154 11.0594 21.4408 11.6849 22.2117 11.6849C22.9826 11.6849 23.608 11.0594 23.608 10.2885C23.608 9.51759 22.9826 8.89213 22.2117 8.89213V8.89262ZM16.0005 10.5241C12.7005 10.5241 10.0249 13.1998 10.0249 16.4999C10.0249 19.8 12.7005 22.4744 16.0005 22.4744C19.3005 22.4744 21.9751 19.8 21.9751 16.4999C21.9751 13.1998 19.3003 10.5241 16.0003 10.5241H16.0005ZM16.0005 12.6211C18.1425 12.6211 19.8792 14.3576 19.8792 16.4999C19.8792 18.6419 18.1425 20.3787 16.0005 20.3787C13.8583 20.3787 12.1218 18.6419 12.1218 16.4999C12.1218 14.3576 13.8583 12.6211 16.0005 12.6211V12.6211Z" fill="white"/>
</g>
<defs>
<radialGradient id="paint0_radial_3_344" cx="0" cy="0" r="1" gradientUnits="userSpaceOnUse" gradientTransform="translate(8.51829 34.9647) rotate(-90) scale(31.7144 29.4969)">
<stop stop-color="#FFDD55"/>
<stop offset="0.1" stop-color="#FFDD55"/>
<stop offset="0.5" stop-color="#FF543E"/>
<stop offset="1" stop-color="#C837AB"/>
</radialGradient>
<radialGradient id="paint1_radial_3_344" cx="0" cy="0" r="1" gradientUnits="userSpaceOnUse" gradientTransform="translate(-5.34192 2.80523) rotate(78.6806) scale(14.1765 58.4359)">
<stop stop-color="#3771C8"/>
<stop offset="0.128" stop-color="#3771C8"/>
<stop offset="1" stop-color="#6600FF" stop-opacity="0"/>
</radialGradient>
<clipPath id="clip0_3_344">
<rect width="32" height="32" fill="white" transform="translate(0 0.5)"/>
</clipPath>
</defs>
</svg>
