<svg width="223" height="54" viewBox="0 0 223 54" fill="none" xmlns="http://www.w3.org/2000/svg">
<path d="M5.20214 37.0521C3.19486 33.6928 5.76097 29.7422 8.72466 31.6292L16.9979 36.8966L50.6587 23.764L18.2223 50.822C16.4526 52.2983 13.8671 51.5537 12.4338 49.155L5.20214 37.0521Z" fill="#6304D4"/>
<path fill-rule="evenodd" clip-rule="evenodd" d="M67.259 4.27259C67.9674 3.47233 67.2848 1.87324 66.2865 1.99436L57.478 3.06304C56.556 3.1749 55.6711 3.46478 54.854 3.92268L44.0879 9.95588C43.1492 10.4819 42.275 11.1465 41.4819 11.9372L18.14 35.2059L51.5053 22.0692L67.259 4.27259ZM55.5148 8.09245L59.9901 5.73875L56.8024 5.0416L55.5148 8.09245Z" fill="#0E1DC7"/>
<path d="M85.0054 39.1297C84.7146 39.1297 84.4767 39.0374 84.2917 38.8529C84.1067 38.6683 84.0142 38.431 84.0142 38.1409V12.4311C84.0142 12.1411 84.1067 11.9038 84.2917 11.7192C84.4767 11.5346 84.7146 11.4423 85.0054 11.4423H103.204C103.495 11.4423 103.733 11.5346 103.918 11.7192C104.129 11.9038 104.235 12.1411 104.235 12.4311V16.426C104.235 16.7161 104.129 16.9534 103.918 17.138C103.733 17.3226 103.495 17.4149 103.204 17.4149H90.9924V23.2292H102.411C102.702 23.2292 102.94 23.3347 103.125 23.5457C103.336 23.7303 103.442 23.9676 103.442 24.2576V28.213C103.442 28.4767 103.336 28.714 103.125 28.9249C102.94 29.1095 102.702 29.2018 102.411 29.2018H90.9924V38.1409C90.9924 38.431 90.8999 38.6683 90.7149 38.8529C90.5298 39.0374 90.2919 39.1297 90.0012 39.1297H85.0054Z" fill="#2D04DE"/>
<path d="M109.04 39.1297C108.749 39.1297 108.512 39.0374 108.326 38.8529C108.141 38.6683 108.049 38.431 108.049 38.1409V12.0356C108.049 11.7456 108.141 11.5082 108.326 11.3237C108.512 11.1391 108.749 11.0468 109.04 11.0468H113.719C114.01 11.0468 114.247 11.1391 114.432 11.3237C114.617 11.5082 114.71 11.7456 114.71 12.0356V38.1409C114.71 38.431 114.617 38.6683 114.432 38.8529C114.247 39.0374 114.01 39.1297 113.719 39.1297H109.04Z" fill="#2D04DE"/>
<path d="M121.74 39.1297C121.45 39.1297 121.212 39.0374 121.027 38.8529C120.842 38.6683 120.749 38.431 120.749 38.1409V19.5508C120.749 19.2607 120.842 19.0234 121.027 18.8388C121.212 18.6542 121.45 18.5619 121.74 18.5619H126.419C126.683 18.5619 126.908 18.6542 127.093 18.8388C127.304 19.0234 127.41 19.2607 127.41 19.5508V38.1409C127.41 38.431 127.304 38.6683 127.093 38.8529C126.908 39.0374 126.683 39.1297 126.419 39.1297H121.74ZM121.701 15.5954C121.41 15.5954 121.172 15.5031 120.987 15.3185C120.802 15.134 120.709 14.8966 120.709 14.6066V11.0863C120.709 10.7963 120.802 10.559 120.987 10.3744C121.172 10.1634 121.41 10.0579 121.701 10.0579H126.419C126.71 10.0579 126.948 10.1634 127.133 10.3744C127.344 10.559 127.45 10.7963 127.45 11.0863V14.6066C127.45 14.8966 127.344 15.134 127.133 15.3185C126.948 15.5031 126.71 15.5954 126.419 15.5954H121.701Z" fill="#2D04DE"/>
<path d="M142.166 47.8315C140.13 47.8315 138.439 47.5678 137.091 47.0404C135.769 46.513 134.712 45.8802 133.919 45.1419C133.152 44.4035 132.597 43.6652 132.253 42.9269C131.91 42.2149 131.725 41.648 131.698 41.2261C131.672 40.936 131.764 40.6987 131.976 40.5141C132.187 40.3295 132.439 40.2372 132.729 40.2372H137.765C138.003 40.2372 138.201 40.29 138.359 40.3954C138.544 40.5273 138.69 40.7382 138.796 41.0283C138.928 41.3184 139.1 41.6216 139.311 41.938C139.549 42.2545 139.866 42.505 140.263 42.6895C140.686 42.9005 141.254 43.006 141.968 43.006C142.76 43.006 143.421 42.8741 143.95 42.6104C144.479 42.3731 144.875 41.9644 145.139 41.3843C145.404 40.8305 145.536 40.079 145.536 39.1297V36.4796C144.928 37.1389 144.148 37.6794 143.197 38.1013C142.245 38.4969 141.095 38.6946 139.747 38.6946C138.399 38.6946 137.21 38.4969 136.179 38.1013C135.148 37.7058 134.289 37.1125 133.602 36.3214C132.914 35.5304 132.372 34.5679 131.976 33.434C131.606 32.3002 131.381 30.9949 131.302 29.5182C131.275 28.8326 131.275 28.1471 131.302 27.4615C131.381 26.0375 131.606 24.7586 131.976 23.6248C132.346 22.4909 132.875 21.5153 133.562 20.6978C134.276 19.8804 135.148 19.2607 136.179 18.8388C137.21 18.3905 138.399 18.1664 139.747 18.1664C141.175 18.1664 142.39 18.4433 143.395 18.997C144.426 19.5244 145.272 20.1968 145.932 21.0142V19.5508C145.932 19.2871 146.025 19.0629 146.21 18.8784C146.395 18.6674 146.633 18.5619 146.924 18.5619H151.483C151.774 18.5619 152.012 18.6674 152.197 18.8784C152.408 19.0629 152.514 19.2871 152.514 19.5508V38.576C152.514 40.58 152.104 42.2676 151.285 43.6388C150.466 45.01 149.289 46.0516 147.756 46.7635C146.223 47.4755 144.36 47.8315 142.166 47.8315ZM141.888 33.5527C142.734 33.5527 143.421 33.3681 143.95 32.9989C144.479 32.6298 144.862 32.1551 145.1 31.575C145.364 30.9949 145.509 30.3752 145.536 29.716C145.562 29.4259 145.576 29.0172 145.576 28.4899C145.576 27.9625 145.562 27.5669 145.536 27.3032C145.509 26.6177 145.364 25.9848 145.1 25.4047C144.862 24.8246 144.479 24.3631 143.95 24.0203C143.421 23.6511 142.734 23.4666 141.888 23.4666C141.016 23.4666 140.315 23.6511 139.787 24.0203C139.285 24.3895 138.915 24.8905 138.677 25.5233C138.465 26.1562 138.333 26.855 138.28 27.6197C138.254 28.1998 138.254 28.7931 138.28 29.3996C138.333 30.1643 138.465 30.8631 138.677 31.4959C138.915 32.1288 139.285 32.6298 139.787 32.9989C140.315 33.3681 141.016 33.5527 141.888 33.5527Z" fill="#2D04DE"/>
<path d="M158.176 39.1297C157.885 39.1297 157.647 39.0374 157.462 38.8529C157.277 38.6683 157.184 38.431 157.184 38.1409V12.0356C157.184 11.7456 157.277 11.5082 157.462 11.3237C157.647 11.1391 157.885 11.0468 158.176 11.0468H163.251C163.541 11.0468 163.779 11.1391 163.964 11.3237C164.149 11.5082 164.242 11.7456 164.242 12.0356V20.856C164.956 20.0386 165.828 19.3926 166.859 18.9179C167.916 18.4169 169.132 18.1664 170.506 18.1664C172.04 18.1664 173.401 18.5092 174.59 19.1948C175.806 19.8804 176.758 20.8956 177.445 22.2404C178.132 23.5589 178.476 25.1805 178.476 27.1055V38.1409C178.476 38.431 178.383 38.6683 178.198 38.8529C178.013 39.0374 177.776 39.1297 177.485 39.1297H172.37C172.106 39.1297 171.868 39.0374 171.656 38.8529C171.471 38.6683 171.379 38.431 171.379 38.1409V27.3428C171.379 26.1035 171.075 25.1542 170.467 24.495C169.885 23.8094 169.013 23.4666 167.85 23.4666C166.766 23.4666 165.894 23.8094 165.233 24.495C164.572 25.1542 164.242 26.1035 164.242 27.3428V38.1409C164.242 38.431 164.149 38.6683 163.964 38.8529C163.779 39.0374 163.541 39.1297 163.251 39.1297H158.176Z" fill="#2D04DE"/>
<path d="M193.325 39.1297C191.633 39.1297 190.166 38.866 188.924 38.3387C187.708 37.7849 186.77 36.9411 186.109 35.8072C185.448 34.647 185.117 33.1572 185.117 31.3377V23.7434H182.025C181.734 23.7434 181.483 23.6511 181.272 23.4666C181.087 23.282 180.994 23.0447 180.994 22.7546V19.5508C180.994 19.2607 181.087 19.0234 181.272 18.8388C181.483 18.6542 181.734 18.5619 182.025 18.5619H185.117V12.0356C185.117 11.7456 185.21 11.5082 185.395 11.3237C185.607 11.1391 185.844 11.0468 186.109 11.0468H190.708C190.999 11.0468 191.237 11.1391 191.422 11.3237C191.607 11.5082 191.699 11.7456 191.699 12.0356V18.5619H196.655C196.946 18.5619 197.184 18.6542 197.369 18.8388C197.554 19.0234 197.647 19.2607 197.647 19.5508V22.7546C197.647 23.0447 197.554 23.282 197.369 23.4666C197.184 23.6511 196.946 23.7434 196.655 23.7434H191.699V30.784C191.699 31.6805 191.871 32.3925 192.215 32.9198C192.558 33.4472 193.14 33.7109 193.959 33.7109H197.012C197.303 33.7109 197.541 33.8032 197.726 33.9878C197.911 34.1724 198.003 34.4097 198.003 34.6997V38.1409C198.003 38.431 197.911 38.6683 197.726 38.8529C197.541 39.0374 197.303 39.1297 197.012 39.1297H193.325Z" fill="#2D04DE"/>
<path d="M205.132 46.6449C204.894 46.6449 204.696 46.5658 204.538 46.4076C204.379 46.2494 204.3 46.0516 204.3 45.8143C204.3 45.7615 204.3 45.6824 204.3 45.5769C204.326 45.4978 204.366 45.4055 204.419 45.3001L207.511 37.864L199.899 19.9068C199.819 19.7222 199.78 19.564 199.78 19.4321C199.832 19.1948 199.938 18.997 200.097 18.8388C200.255 18.6542 200.454 18.5619 200.692 18.5619H205.212C205.555 18.5619 205.806 18.6542 205.965 18.8388C206.15 18.997 206.269 19.1816 206.322 19.3926L210.881 30.9026L215.52 19.3926C215.626 19.1816 215.758 18.997 215.917 18.8388C216.102 18.6542 216.366 18.5619 216.71 18.5619H221.15C221.388 18.5619 221.587 18.6542 221.745 18.8388C221.93 18.997 222.023 19.1816 222.023 19.3926C222.023 19.5244 221.983 19.6958 221.904 19.9068L210.683 45.8143C210.604 46.0252 210.472 46.2098 210.287 46.368C210.102 46.5526 209.837 46.6449 209.494 46.6449H205.132Z" fill="#2D04DE"/>
<path d="M129.699 11.6621C129.699 14.696 127.233 17.1556 124.192 17.1556C121.151 17.1556 118.685 14.696 118.685 11.6621C118.685 8.62806 121.151 6.16852 124.192 6.16852C127.233 6.16852 129.699 8.62806 129.699 11.6621Z" fill="#9644F9"/>
</svg>
