<svg width="223" height="53" viewBox="0 0 223 53" fill="none" xmlns="http://www.w3.org/2000/svg">
<path d="M5.20214 36.5521C3.19486 33.1927 5.76097 29.2422 8.72466 31.1291L16.9979 36.3966L50.6587 23.264L18.2223 50.322C16.4526 51.7982 13.8671 51.0537 12.4338 48.655L5.20214 36.5521Z" fill="#6304D4"/>
<path fill-rule="evenodd" clip-rule="evenodd" d="M67.259 3.77253C67.9674 2.97227 67.2848 1.37318 66.2865 1.4943L57.478 2.56298C56.556 2.67484 55.6711 2.96472 54.854 3.42262L44.0879 9.45582C43.1492 9.98184 42.275 10.6465 41.4819 11.4371L18.14 34.7059L51.5053 21.5691L67.259 3.77253ZM55.5148 7.59239L59.9901 5.23869L56.8024 4.54154L55.5148 7.59239Z" fill="#0E1DC7"/>
<path d="M85.0054 38.6297C84.7146 38.6297 84.4767 38.5374 84.2917 38.3528C84.1067 38.1682 84.0142 37.9309 84.0142 37.6408V11.9311C84.0142 11.641 84.1067 11.4037 84.2917 11.2191C84.4767 11.0345 84.7146 10.9422 85.0054 10.9422H103.204C103.495 10.9422 103.733 11.0345 103.918 11.2191C104.129 11.4037 104.235 11.641 104.235 11.9311V15.926C104.235 16.216 104.129 16.4534 103.918 16.6379C103.733 16.8225 103.495 16.9148 103.204 16.9148H90.9924V22.7292H102.411C102.702 22.7292 102.94 22.8347 103.125 23.0456C103.336 23.2302 103.442 23.4675 103.442 23.7576V27.7129C103.442 27.9766 103.336 28.2139 103.125 28.4249C102.94 28.6095 102.702 28.7018 102.411 28.7018H90.9924V37.6408C90.9924 37.9309 90.8999 38.1682 90.7149 38.3528C90.5298 38.5374 90.2919 38.6297 90.0012 38.6297H85.0054Z" fill="#FBFAFA"/>
<path d="M109.04 38.6297C108.749 38.6297 108.512 38.5374 108.326 38.3528C108.141 38.1682 108.049 37.9309 108.049 37.6408V11.5356C108.049 11.2455 108.141 11.0082 108.326 10.8236C108.512 10.639 108.749 10.5467 109.04 10.5467H113.719C114.01 10.5467 114.247 10.639 114.432 10.8236C114.617 11.0082 114.71 11.2455 114.71 11.5356V37.6408C114.71 37.9309 114.617 38.1682 114.432 38.3528C114.247 38.5374 114.01 38.6297 113.719 38.6297H109.04Z" fill="#FBFAFA"/>
<path d="M121.74 38.6297C121.45 38.6297 121.212 38.5374 121.027 38.3528C120.842 38.1682 120.749 37.9309 120.749 37.6408V19.0507C120.749 18.7606 120.842 18.5233 121.027 18.3387C121.212 18.1542 121.45 18.0619 121.74 18.0619H126.419C126.683 18.0619 126.908 18.1542 127.093 18.3387C127.304 18.5233 127.41 18.7606 127.41 19.0507V37.6408C127.41 37.9309 127.304 38.1682 127.093 38.3528C126.908 38.5374 126.683 38.6297 126.419 38.6297H121.74ZM121.701 15.0954C121.41 15.0954 121.172 15.0031 120.987 14.8185C120.802 14.6339 120.709 14.3966 120.709 14.1065V10.5863C120.709 10.2962 120.802 10.0589 120.987 9.87431C121.172 9.66335 121.41 9.55788 121.701 9.55788H126.419C126.71 9.55788 126.948 9.66335 127.133 9.87431C127.344 10.0589 127.45 10.2962 127.45 10.5863V14.1065C127.45 14.3966 127.344 14.6339 127.133 14.8185C126.948 15.0031 126.71 15.0954 126.419 15.0954H121.701Z" fill="#FBFAFA"/>
<path d="M142.166 47.3314C140.13 47.3314 138.439 47.0677 137.091 46.5404C135.769 46.013 134.712 45.3801 133.919 44.6418C133.152 43.9035 132.597 43.1651 132.253 42.4268C131.91 41.7148 131.725 41.1479 131.698 40.726C131.672 40.4359 131.764 40.1986 131.976 40.014C132.187 39.8295 132.439 39.7372 132.729 39.7372H137.765C138.003 39.7372 138.201 39.7899 138.359 39.8954C138.544 40.0272 138.69 40.2382 138.796 40.5282C138.928 40.8183 139.1 41.1215 139.311 41.438C139.549 41.7544 139.866 42.0049 140.263 42.1895C140.686 42.4004 141.254 42.5059 141.968 42.5059C142.76 42.5059 143.421 42.3741 143.95 42.1104C144.479 41.8731 144.875 41.4643 145.139 40.8842C145.404 40.3305 145.536 39.579 145.536 38.6297V35.9796C144.928 36.6388 144.148 37.1794 143.197 37.6013C142.245 37.9968 141.095 38.1946 139.747 38.1946C138.399 38.1946 137.21 37.9968 136.179 37.6013C135.148 37.2057 134.289 36.6124 133.602 35.8214C132.914 35.0303 132.372 34.0678 131.976 32.934C131.606 31.8001 131.381 30.4948 131.302 29.0182C131.275 28.3326 131.275 27.647 131.302 26.9614C131.381 25.5375 131.606 24.2586 131.976 23.1247C132.346 21.9908 132.875 21.0152 133.562 20.1978C134.276 19.3803 135.148 18.7607 136.179 18.3387C137.21 17.8905 138.399 17.6663 139.747 17.6663C141.175 17.6663 142.39 17.9432 143.395 18.497C144.426 19.0243 145.272 19.6967 145.932 20.5142V19.0507C145.932 18.787 146.025 18.5629 146.21 18.3783C146.395 18.1673 146.633 18.0619 146.924 18.0619H151.483C151.774 18.0619 152.012 18.1673 152.197 18.3783C152.408 18.5629 152.514 18.787 152.514 19.0507V38.0759C152.514 40.08 152.104 41.7676 151.285 43.1388C150.466 44.5099 149.289 45.5515 147.756 46.2635C146.223 46.9755 144.36 47.3314 142.166 47.3314ZM141.888 33.0526C142.734 33.0526 143.421 32.868 143.95 32.4989C144.479 32.1297 144.862 31.6551 145.1 31.075C145.364 30.4948 145.509 29.8752 145.536 29.2159C145.562 28.9259 145.576 28.5172 145.576 27.9898C145.576 27.4624 145.562 27.0669 145.536 26.8032C145.509 26.1176 145.364 25.4847 145.1 24.9046C144.862 24.3245 144.479 23.863 143.95 23.5202C143.421 23.1511 142.734 22.9665 141.888 22.9665C141.016 22.9665 140.315 23.1511 139.787 23.5202C139.285 23.8894 138.915 24.3904 138.677 25.0233C138.465 25.6561 138.333 26.3549 138.28 27.1196C138.254 27.6997 138.254 28.293 138.28 28.8995C138.333 29.6642 138.465 30.363 138.677 30.9959C138.915 31.6287 139.285 32.1297 139.787 32.4989C140.315 32.868 141.016 33.0526 141.888 33.0526Z" fill="#FBFAFA"/>
<path d="M158.176 38.6297C157.885 38.6297 157.647 38.5374 157.462 38.3528C157.277 38.1682 157.184 37.9309 157.184 37.6408V11.5356C157.184 11.2455 157.277 11.0082 157.462 10.8236C157.647 10.639 157.885 10.5467 158.176 10.5467H163.251C163.541 10.5467 163.779 10.639 163.964 10.8236C164.149 11.0082 164.242 11.2455 164.242 11.5356V20.356C164.956 19.5385 165.828 18.8925 166.859 18.4179C167.916 17.9168 169.132 17.6663 170.506 17.6663C172.04 17.6663 173.401 18.0091 174.59 18.6947C175.806 19.3803 176.758 20.3955 177.445 21.7403C178.132 23.0588 178.476 24.6805 178.476 26.6054V37.6408C178.476 37.9309 178.383 38.1682 178.198 38.3528C178.013 38.5374 177.776 38.6297 177.485 38.6297H172.37C172.106 38.6297 171.868 38.5374 171.656 38.3528C171.471 38.1682 171.379 37.9309 171.379 37.6408V26.8427C171.379 25.6034 171.075 24.6541 170.467 23.9949C169.885 23.3093 169.013 22.9665 167.85 22.9665C166.766 22.9665 165.894 23.3093 165.233 23.9949C164.572 24.6541 164.242 25.6034 164.242 26.8427V37.6408C164.242 37.9309 164.149 38.1682 163.964 38.3528C163.779 38.5374 163.541 38.6297 163.251 38.6297H158.176Z" fill="#FBFAFA"/>
<path d="M193.325 38.6297C191.633 38.6297 190.166 38.366 188.924 37.8386C187.708 37.2849 186.77 36.441 186.109 35.3072C185.448 34.1469 185.117 32.6571 185.117 30.8376V23.2434H182.025C181.734 23.2434 181.483 23.1511 181.272 22.9665C181.087 22.7819 180.994 22.5446 180.994 22.2545V19.0507C180.994 18.7606 181.087 18.5233 181.272 18.3387C181.483 18.1542 181.734 18.0619 182.025 18.0619H185.117V11.5356C185.117 11.2455 185.21 11.0082 185.395 10.8236C185.607 10.639 185.844 10.5467 186.109 10.5467H190.708C190.999 10.5467 191.237 10.639 191.422 10.8236C191.607 11.0082 191.699 11.2455 191.699 11.5356V18.0619H196.655C196.946 18.0619 197.184 18.1542 197.369 18.3387C197.554 18.5233 197.647 18.7606 197.647 19.0507V22.2545C197.647 22.5446 197.554 22.7819 197.369 22.9665C197.184 23.1511 196.946 23.2434 196.655 23.2434H191.699V30.2839C191.699 31.1804 191.871 31.8924 192.215 32.4198C192.558 32.9472 193.14 33.2108 193.959 33.2108H197.012C197.303 33.2108 197.541 33.3031 197.726 33.4877C197.911 33.6723 198.003 33.9096 198.003 34.1997V37.6408C198.003 37.9309 197.911 38.1682 197.726 38.3528C197.541 38.5374 197.303 38.6297 197.012 38.6297H193.325Z" fill="#FBFAFA"/>
<path d="M205.132 46.1448C204.894 46.1448 204.696 46.0657 204.538 45.9075C204.379 45.7493 204.3 45.5515 204.3 45.3142C204.3 45.2615 204.3 45.1824 204.3 45.0769C204.326 44.9978 204.366 44.9055 204.419 44.8L207.511 37.364L199.899 19.4067C199.819 19.2221 199.78 19.0639 199.78 18.932C199.832 18.6947 199.938 18.497 200.097 18.3387C200.255 18.1542 200.454 18.0619 200.692 18.0619H205.212C205.555 18.0619 205.806 18.1542 205.965 18.3387C206.15 18.497 206.269 18.6815 206.322 18.8925L210.881 30.4025L215.52 18.8925C215.626 18.6815 215.758 18.497 215.917 18.3387C216.102 18.1542 216.366 18.0619 216.71 18.0619H221.15C221.388 18.0619 221.587 18.1542 221.745 18.3387C221.93 18.497 222.023 18.6815 222.023 18.8925C222.023 19.0243 221.983 19.1957 221.904 19.4067L210.683 45.3142C210.604 45.5252 210.472 45.7097 210.287 45.868C210.102 46.0525 209.837 46.1448 209.494 46.1448H205.132Z" fill="#FBFAFA"/>
<path d="M129.699 11.162C129.699 14.196 127.233 16.6555 124.192 16.6555C121.151 16.6555 118.685 14.196 118.685 11.162C118.685 8.128 121.151 5.66846 124.192 5.66846C127.233 5.66846 129.699 8.128 129.699 11.162Z" fill="#9644F9"/>
</svg>
