<svg width="32" height="33" viewBox="0 0 32 33" fill="none" xmlns="http://www.w3.org/2000/svg">
<path d="M0 11.2333C0 7.43673 0 5.53843 0.750577 4.0935C1.38308 2.87588 2.37588 1.88308 3.5935 1.25058C5.03843 0.5 6.93673 0.5 10.7333 0.5H21.2667C25.0633 0.5 26.9616 0.5 28.4065 1.25058C29.6241 1.88308 30.6169 2.87588 31.2494 4.0935C32 5.53843 32 7.43673 32 11.2333V21.7667C32 25.5633 32 27.4616 31.2494 28.9065C30.6169 30.1241 29.6241 31.1169 28.4065 31.7494C26.9616 32.5 25.0633 32.5 21.2667 32.5H10.7333C6.93673 32.5 5.03843 32.5 3.5935 31.7494C2.37588 31.1169 1.38308 30.1241 0.750577 28.9065C0 27.4616 0 25.5633 0 21.7667V11.2333Z" fill="url(#paint0_linear_3_322)"/>
<path d="M22.2222 20.9444L22.9333 16.4999H18.6666V13.3888C18.6666 12.1444 19.1111 11.1666 21.0666 11.1666H23.1111V7.07772C21.9555 6.89995 20.7111 6.72217 19.5555 6.72217C15.9111 6.72217 13.3333 8.94439 13.3333 12.9444V16.4999H9.33331V20.9444H13.3333V32.4999C15.1111 32.4999 16.8889 32.4999 18.6666 32.4999V20.9444H22.2222Z" fill="white"/>
<defs>
<linearGradient id="paint0_linear_3_322" x1="16" y1="31.565" x2="16" y2="0.5" gradientUnits="userSpaceOnUse">
<stop stop-color="#0062E0"/>
<stop offset="1" stop-color="#19AFFF"/>
</linearGradient>
</defs>
</svg>
