<svg width="32" height="33" viewBox="0 0 32 33" fill="none" xmlns="http://www.w3.org/2000/svg">
<g clip-path="url(#clip0_3_377)">
<path d="M0 11.2333C0 7.43673 0 5.53843 0.750577 4.0935C1.38308 2.87588 2.37588 1.88308 3.5935 1.25058C5.03843 0.5 6.93673 0.5 10.7333 0.5H21.2667C25.0633 0.5 26.9616 0.5 28.4065 1.25058C29.6241 1.88308 30.6169 2.87588 31.2494 4.0935C32 5.53843 32 7.43673 32 11.2333V21.7667C32 25.5633 32 27.4616 31.2494 28.9065C30.6169 30.1241 29.6241 31.1169 28.4065 31.7494C26.9616 32.5 25.0633 32.5 21.2667 32.5H10.7333C6.93673 32.5 5.03843 32.5 3.5935 31.7494C2.37588 31.1169 1.38308 30.1241 0.750577 28.9065C0 27.4616 0 25.5633 0 21.7667V11.2333Z" fill="black"/>
<path d="M9.70909 19.6605C9.83931 18.5822 10.2815 17.9785 11.1149 17.3596C12.3073 16.5215 13.7967 16.9956 13.7967 16.9956V14.183C14.1588 14.1737 14.5211 14.1952 14.8792 14.2471V17.8667C14.8792 17.8667 13.3902 17.3926 12.1979 18.2312C11.3649 18.8496 10.9218 19.4537 10.792 20.532C10.788 21.1175 10.8979 21.8828 11.4038 22.5446C11.2787 22.4805 11.1512 22.4074 11.0213 22.3253C9.90669 21.5769 9.70366 20.454 9.70909 19.6605ZM21.0293 8.9824C20.209 8.08357 19.8988 7.17608 19.7867 6.53857H20.8185C20.8185 6.53857 20.6128 8.21012 22.1122 9.85393L22.133 9.87603C21.7289 9.62183 21.3583 9.32179 21.0293 8.9824ZM26 11.5307V15.0775C26 15.0775 24.6833 15.0259 23.7088 14.778C22.3482 14.4313 21.4737 13.8995 21.4737 13.8995C21.4737 13.8995 20.8696 13.5203 20.8208 13.4939V20.818C20.8208 21.2258 20.7091 22.2443 20.3686 23.0937C19.9241 24.2049 19.2382 24.9343 19.112 25.0833C19.112 25.0833 18.2778 26.0693 16.806 26.7332C15.4793 27.3321 14.3145 27.317 13.9663 27.3321C13.9663 27.3321 11.9528 27.4119 10.1409 26.2344C9.74911 25.9749 9.38338 25.6809 9.04846 25.3564L9.05751 25.3629C10.8698 26.5404 12.8829 26.4606 12.8829 26.4606C13.2315 26.4455 14.3963 26.4606 15.7225 25.8617C17.193 25.1978 18.0286 24.2118 18.0286 24.2118C18.1534 24.0627 18.8425 23.3334 19.2852 22.2217C19.6248 21.3727 19.7374 20.3539 19.7374 19.9461V12.6228C19.7862 12.6497 20.3899 13.0289 20.3899 13.0289C20.3899 13.0289 21.2648 13.5611 22.6254 13.9073C23.6003 14.1552 24.9166 14.2068 24.9166 14.2068V11.4275C25.367 11.5285 25.7509 11.5558 26 11.5307Z" fill="#FD355A"/>
<path d="M24.917 11.4275V14.2059C24.917 14.2059 23.6007 14.1544 22.6258 13.9065C21.2652 13.5598 20.3903 13.028 20.3903 13.028C20.3903 13.028 19.7866 12.6488 19.7378 12.6219V19.9469C19.7378 20.3547 19.6261 21.3736 19.2856 22.2226C18.8411 23.3342 18.1552 24.0636 18.029 24.2127C18.029 24.2127 17.1943 25.1986 15.7229 25.8626C14.3967 26.4615 13.2319 26.4463 12.8833 26.4615C12.8833 26.4615 10.8702 26.5412 9.05789 25.3637L9.04884 25.3572C8.8575 25.172 8.67739 24.9763 8.5094 24.7713C7.93107 24.0662 7.57657 23.2324 7.48749 22.9944C7.48733 22.9934 7.48733 22.9924 7.48749 22.9914C7.34415 22.578 7.043 21.5851 7.08415 20.6234C7.15695 18.9267 7.75382 17.8853 7.91163 17.6244C8.32957 16.913 8.87316 16.2764 9.5182 15.7431C10.0874 15.2829 10.7326 14.9168 11.4273 14.6597C12.1783 14.3578 12.9824 14.196 13.7967 14.183V16.9956C13.7967 16.9956 12.3072 16.5232 11.1153 17.3596C10.2819 17.9785 9.8397 18.5822 9.70947 19.6605C9.70404 20.454 9.90707 21.5769 11.0208 22.3257C11.1507 22.4081 11.2782 22.4812 11.4033 22.545C11.5979 22.7979 11.8347 23.0183 12.1042 23.1973C13.1921 23.8859 14.1037 23.934 15.2694 23.4868C16.0467 23.1877 16.6318 22.5138 16.9031 21.7671C17.0736 21.3008 17.0713 20.8314 17.0713 20.3461V6.53857H19.7844C19.8965 7.17608 20.2067 8.08357 21.0269 8.9824C21.356 9.32179 21.7266 9.62183 22.1307 9.87603C22.2501 9.99955 22.8605 10.6102 23.6441 10.9851C24.0493 11.1788 24.4764 11.3273 24.917 11.4275V11.4275Z" fill="white"/>
<path d="M6.40771 22.1309V22.133L6.47503 22.3155C6.4673 22.2942 6.44228 22.2297 6.40771 22.1309Z" fill="#33F3ED"/>
<path d="M11.4273 14.6598C10.7327 14.9169 10.0875 15.283 9.51827 15.7432C8.87302 16.2777 8.32957 16.9156 7.91215 17.6284C7.75434 17.8885 7.15747 18.9307 7.08467 20.6274C7.04352 21.5891 7.34467 22.582 7.48801 22.9954C7.48786 22.9964 7.48786 22.9974 7.48801 22.9984C7.57845 23.2342 7.93159 24.068 8.50992 24.7753C8.67792 24.9803 8.85803 25.176 9.04937 25.3612C8.43631 24.9549 7.88955 24.4635 7.42697 23.9033C6.85361 23.2043 6.50001 22.3791 6.40777 22.1356C6.40766 22.1339 6.40766 22.1321 6.40777 22.1304V22.1274C6.26398 21.7143 5.96193 20.721 6.00398 19.7581C6.07678 18.0614 6.67365 17.02 6.83145 16.7591C7.24875 16.0462 7.79222 15.4083 8.43758 14.8739C9.00667 14.4135 9.65188 14.0473 10.3467 13.7904C10.78 13.6181 11.2315 13.491 11.6932 13.4112C12.3891 13.2948 13.0998 13.2847 13.799 13.3813V14.1831C12.984 14.1958 12.179 14.3577 11.4273 14.6598Z" fill="#33F3ED"/>
<path d="M19.7867 6.53871H17.0736V20.3466C17.0736 20.832 17.0736 21.3001 16.9054 21.7677C16.6314 22.514 16.0485 23.1879 15.2717 23.4869C14.1055 23.9359 13.194 23.886 12.1065 23.1974C11.8365 23.0193 11.5991 22.7996 11.4038 22.5473C12.3303 23.021 13.1596 23.0128 14.1869 22.6175C14.9633 22.3185 15.5471 21.6446 15.8202 20.8979C15.9911 20.4316 15.9888 19.9622 15.9888 19.4773V5.66675H19.7351C19.7351 5.66675 19.6931 6.00999 19.7867 6.53871ZM24.917 10.6593V11.4277C24.4772 11.3273 24.0509 11.1788 23.6464 10.9852C22.8628 10.6103 22.2524 9.99968 22.133 9.87617C22.2715 9.96333 22.4152 10.0426 22.5635 10.1137C23.5162 10.5696 24.4544 10.7057 24.917 10.6593Z" fill="#33F3ED"/>
</g>
<defs>
<clipPath id="clip0_3_377">
<rect width="32" height="32" fill="white" transform="translate(0 0.5)"/>
</clipPath>
</defs>
</svg>
