<svg width="73" height="73" viewBox="0 0 73 73" fill="none" xmlns="http://www.w3.org/2000/svg">
<path d="M51.3345 0.309242C52.2516 0.84268 52.6799 1.93801 52.3679 2.95208L44.1513 29.6562H59.3126C60.2227 29.6562 61.0457 30.1972 61.4067 31.0326C61.7677 31.8681 61.5975 32.8382 60.9738 33.5009L24.4738 72.2822C23.7466 73.0548 22.5827 73.2241 21.6656 72.6907C20.7485 72.1572 20.3202 71.0619 20.6322 70.0478L28.8488 43.3437H13.6876C12.7774 43.3437 11.9544 42.8027 11.5934 41.9673C11.2324 41.1318 11.4026 40.1617 12.0263 39.499L48.5263 0.717711C49.2535 -0.0549056 50.4174 -0.224196 51.3345 0.309242Z" fill="white"/>
</svg>
