<svg width="32" height="33" viewBox="0 0 32 33" fill="none" xmlns="http://www.w3.org/2000/svg">
<path d="M0 3.5C0 2.94772 0.447715 2.5 1 2.5H4C4.45887 2.5 4.85885 2.8123 4.97014 3.25746L5.78078 6.5H29C29.2996 6.5 29.5834 6.63432 29.7733 6.86601C29.9633 7.0977 30.0393 7.40234 29.9806 7.69612L27.9806 17.6961C27.8908 18.1451 27.5074 18.4758 27.0501 18.4987L8.25643 19.4414L8.82993 22.5H26C26.5523 22.5 27 22.9477 27 23.5C27 24.0523 26.5523 24.5 26 24.5H24H10H8C7.51878 24.5 7.10581 24.1573 7.01713 23.6843L4.02262 7.7136L3.21922 4.5H1C0.447715 4.5 0 4.05228 0 3.5ZM6.20493 8.5L7.88446 17.4575L26.1721 16.5403L27.7802 8.5H6.20493ZM10 24.5C7.79086 24.5 6 26.2909 6 28.5C6 30.7091 7.79086 32.5 10 32.5C12.2091 32.5 14 30.7091 14 28.5C14 26.2909 12.2091 24.5 10 24.5ZM24 24.5C21.7909 24.5 20 26.2909 20 28.5C20 30.7091 21.7909 32.5 24 32.5C26.2091 32.5 28 30.7091 28 28.5C28 26.2909 26.2091 24.5 24 24.5ZM10 26.5C11.1046 26.5 12 27.3954 12 28.5C12 29.6046 11.1046 30.5 10 30.5C8.89543 30.5 8 29.6046 8 28.5C8 27.3954 8.89543 26.5 10 26.5ZM24 26.5C25.1046 26.5 26 27.3954 26 28.5C26 29.6046 25.1046 30.5 24 30.5C22.8954 30.5 22 29.6046 22 28.5C22 27.3954 22.8954 26.5 24 26.5Z" fill="#4B4C4D"/>
</svg>
