<svg width="66" height="82" viewBox="0 0 66 82" fill="none" xmlns="http://www.w3.org/2000/svg">
<path d="M33 5.46667C17.8122 5.46667 5.5 17.7042 5.5 32.8V38.2667H11C14.0376 38.2667 16.5 40.7142 16.5 43.7333V60.1333C16.5 63.1525 14.0376 65.6 11 65.6H5.5C2.46243 65.6 0 63.1525 0 60.1333V32.8C0 14.6851 14.7746 0 33 0C51.2254 0 66 14.6851 66 32.8V65.6C66 73.1479 59.8439 79.2667 52.25 79.2667H40.5142C39.5632 80.9007 37.7858 82 35.75 82H30.25C27.2124 82 24.75 79.5525 24.75 76.5333C24.75 73.5142 27.2124 71.0667 30.25 71.0667H35.75C37.7858 71.0667 39.5632 72.166 40.5142 73.8H52.25C56.8064 73.8 60.5 70.1287 60.5 65.6H55C51.9624 65.6 49.5 63.1525 49.5 60.1333V43.7333C49.5 40.7142 51.9624 38.2667 55 38.2667H60.5V32.8C60.5 17.7042 48.1878 5.46667 33 5.46667Z" fill="white"/>
</svg>
