<svg width="24" height="25" viewBox="0 0 24 25" fill="none" xmlns="http://www.w3.org/2000/svg">
<path fill-rule="evenodd" clip-rule="evenodd" d="M0.750007 9.49995C0.522517 9.49995 0.307322 9.6032 0.164975 9.78066C0.0226286 9.95811 -0.0314831 10.1906 0.0178664 10.4127L2.49582 21.5634C2.8771 23.2792 4.3989 24.5 6.15652 24.5H14.8435C16.6011 24.5 18.1229 23.2792 18.5042 21.5634L18.7007 20.6791C18.9604 20.7257 19.2276 20.75 19.5 20.75C21.9853 20.75 24 18.7352 24 16.25C24 14.1627 22.5793 12.4078 20.6519 11.8988L20.9821 10.4127C21.0315 10.1906 20.9774 9.95811 20.835 9.78066C20.6927 9.6032 20.4775 9.49995 20.25 9.49995H0.750007ZM19.5 19.25C19.3386 19.25 19.1805 19.2373 19.0265 19.2129L20.3261 13.365C21.581 13.7236 22.5 14.8797 22.5 16.25C22.5 17.9068 21.1569 19.25 19.5 19.25ZM3.9601 21.238L1.68497 11H19.315L17.0399 21.238C16.8111 22.2675 15.8981 23 14.8435 23H6.15652C5.10195 23 4.18887 22.2675 3.9601 21.238Z" fill="black"/>
<path d="M6.6001 1.6998L6.59512 1.70651L6.57523 1.73375C6.55743 1.75833 6.53123 1.795 6.49946 1.8409C6.4354 1.93342 6.35115 2.05991 6.26812 2.1983C6.18369 2.33901 6.10847 2.47889 6.05655 2.60005C6.01849 2.68885 6.00596 2.73802 6.00189 2.75402C6.00093 2.7578 6.00019 2.75988 6.00019 2.75988C6.00275 2.82721 6.03162 2.943 6.13806 3.13223C6.25002 3.33129 6.40564 3.54078 6.6 3.79993L6.61373 3.81823C6.79166 4.05542 7.0043 4.33888 7.16931 4.63223C7.33867 4.93332 7.5 5.31555 7.5 5.74992C7.5 6.03147 7.40287 6.30239 7.32217 6.49068C7.23347 6.69764 7.12119 6.90151 7.01812 7.0733C6.91365 7.24741 6.8104 7.40217 6.73383 7.51277C6.6953 7.56843 6.6629 7.6138 6.63968 7.64586L6.61197 7.68381L6.60388 7.69473L6.6014 7.69806L6.60024 7.6996C6.35172 8.03097 5.88137 8.09845 5.55 7.84993C5.21876 7.60149 5.15152 7.13166 5.39971 6.80032L5.40488 6.79334L5.42477 6.7661C5.44257 6.74152 5.46877 6.70485 5.50054 6.65896C5.5646 6.56643 5.64885 6.43994 5.73188 6.30155C5.81631 6.16084 5.89153 6.02096 5.94345 5.8998C5.9815 5.81101 5.99403 5.76184 5.99811 5.74584C5.99907 5.74205 5.99981 5.73997 5.99981 5.73997C5.99725 5.67264 5.96838 5.55685 5.86194 5.36762C5.74997 5.16856 5.59436 4.95907 5.4 4.69992L5.38627 4.68162C5.20833 4.44442 4.99571 4.16098 4.83069 3.86762C4.66133 3.56653 4.5 3.1843 4.5 2.74993C4.5 2.46838 4.59713 2.19746 4.67783 2.00917C4.76653 1.80221 4.87881 1.59834 4.98188 1.42655C5.08635 1.25244 5.1896 1.09768 5.26617 0.98708C5.3047 0.931418 5.3371 0.886052 5.36032 0.853988L5.3986 0.801793L5.39975 0.800253C5.64828 0.468882 6.11863 0.401397 6.45 0.649925C6.78123 0.898351 6.84826 1.36845 6.6001 1.6998Z" fill="black"/>
<path d="M11.1001 1.6998L11.0951 1.70651L11.0752 1.73375C11.0574 1.75833 11.0312 1.795 10.9995 1.8409C10.9354 1.93342 10.8512 2.05991 10.7681 2.1983C10.6837 2.33901 10.6085 2.47889 10.5565 2.60005C10.5185 2.68885 10.506 2.73802 10.5019 2.75402C10.5009 2.7578 10.5002 2.75988 10.5002 2.75988C10.5028 2.82721 10.5316 2.943 10.6381 3.13223C10.75 3.33129 10.9056 3.54078 11.1 3.79993L11.1137 3.81823C11.2917 4.05542 11.5043 4.33888 11.6693 4.63223C11.8387 4.93332 12 5.31555 12 5.74992C12 6.03147 11.9029 6.30239 11.8222 6.49068C11.7335 6.69764 11.6212 6.90151 11.5181 7.0733C11.4137 7.24741 11.3104 7.40217 11.2338 7.51277C11.1953 7.56843 11.1629 7.6138 11.1397 7.64586L11.112 7.68381L11.1039 7.69473L11.1014 7.69806L11.1002 7.6996C10.8517 8.03097 10.3814 8.09845 10.05 7.84993C9.71876 7.60149 9.65152 7.13166 9.89971 6.80032L9.90488 6.79334L9.92477 6.7661C9.94257 6.74152 9.96877 6.70485 10.0005 6.65896C10.0646 6.56643 10.1488 6.43994 10.2319 6.30155C10.3163 6.16084 10.3915 6.02096 10.4435 5.8998C10.4815 5.81101 10.494 5.76184 10.4981 5.74584C10.4991 5.74205 10.4998 5.73997 10.4998 5.73997C10.4972 5.67264 10.4684 5.55685 10.3619 5.36762C10.25 5.16856 10.0944 4.95907 9.9 4.69992L9.88627 4.68162C9.70833 4.44442 9.49571 4.16098 9.33069 3.86762C9.16133 3.56653 9 3.1843 9 2.74993C9 2.46838 9.09713 2.19746 9.17783 2.00917C9.26653 1.80221 9.37881 1.59834 9.48188 1.42655C9.58635 1.25244 9.6896 1.09768 9.76617 0.98708C9.8047 0.931418 9.8371 0.886052 9.86032 0.853988L9.8986 0.801793L9.89975 0.800253C10.1483 0.468882 10.6186 0.401397 10.95 0.649925C11.2812 0.898351 11.3483 1.36845 11.1001 1.6998Z" fill="black"/>
<path d="M15.6001 1.6998L15.5951 1.70651L15.5752 1.73375C15.5574 1.75833 15.5312 1.795 15.4995 1.8409C15.4354 1.93342 15.3512 2.05991 15.2681 2.1983C15.1837 2.33901 15.1085 2.47889 15.0565 2.60005C15.0185 2.68885 15.006 2.73802 15.0019 2.75402C15.0009 2.7578 15.0002 2.75988 15.0002 2.75988C15.0028 2.82721 15.0316 2.943 15.1381 3.13223C15.25 3.33129 15.4056 3.54078 15.6 3.79993L15.6137 3.81823C15.7917 4.05542 16.0043 4.33888 16.1693 4.63223C16.3387 4.93332 16.5 5.31555 16.5 5.74992C16.5 6.03147 16.4029 6.30239 16.3222 6.49068C16.2335 6.69764 16.1212 6.90151 16.0181 7.0733C15.9137 7.24741 15.8104 7.40217 15.7338 7.51277C15.6953 7.56843 15.6629 7.6138 15.6397 7.64586L15.612 7.68381L15.6039 7.69473L15.6014 7.69806L15.6002 7.6996C15.3517 8.03097 14.8814 8.09845 14.55 7.84993C14.2188 7.60149 14.1515 7.13166 14.3997 6.80032L14.4049 6.79334L14.4248 6.7661C14.4426 6.74152 14.4688 6.70485 14.5005 6.65896C14.5646 6.56643 14.6488 6.43994 14.7319 6.30155C14.8163 6.16084 14.8915 6.02096 14.9435 5.8998C14.9815 5.81101 14.994 5.76184 14.9981 5.74584C14.9991 5.74205 14.9998 5.73997 14.9998 5.73997C14.9972 5.67264 14.9684 5.55685 14.8619 5.36762C14.75 5.16856 14.5944 4.95907 14.4 4.69992L14.3863 4.68162C14.2083 4.44442 13.9957 4.16098 13.8307 3.86762C13.6613 3.56653 13.5 3.1843 13.5 2.74993C13.5 2.46838 13.5971 2.19746 13.6778 2.00917C13.7665 1.80221 13.8788 1.59834 13.9819 1.42655C14.0863 1.25244 14.1896 1.09768 14.2662 0.98708C14.3047 0.931418 14.3371 0.886052 14.3603 0.853988L14.3986 0.801793L14.3998 0.800253C14.6483 0.468882 15.1186 0.401397 15.45 0.649925C15.7812 0.898351 15.8483 1.36845 15.6001 1.6998Z" fill="black"/>
</svg>
